<svg width="79" height="44" viewBox="0 0 79 44" fill="none" xmlns="http://www.w3.org/2000/svg">
<path d="M21.4875 12.1218L14.034 27.9475C13.9073 23.4155 13.6011 17.5576 13.2578 13.0374C12.9491 9.34311 10.1692 9.75288 7.4982 10.6258C5.91064 11.1449 4.16426 11.9287 2.82505 12.4536C1.96621 12.7904 2.03102 13.9099 2.97841 14.1564C5.4263 14.7936 5.43818 16.1778 5.73006 18.4507L7.20829 29.965C7.40965 31.533 7.62534 33.0446 9.27772 33.5436C12.0437 34.3793 17.8572 34.4455 20.1008 30.3875L30.7655 11.1003C31.9815 8.90099 22.3003 10.3965 21.4875 12.1218Z" fill="currentColor"/>
<path d="M51.5194 19.7438C52.1447 17.3038 51.9151 14.7089 50.1331 12.7576C48.2596 10.7053 45.3927 10 42.648 10C37.5251 10 33.0256 12.3121 30.1137 16.3196C28.1501 19.0218 27.0949 22.1 27.1463 24.911C27.2646 31.4281 33.0053 33.9387 38.8178 33.7603C42.4704 33.6486 46.8111 31.7713 48.0538 29.3494C48.6885 28.1127 48.1463 25.6448 46.1026 26.8785C43.1887 28.6372 34.8234 29.1288 34.2506 24.9708L47.2494 23.1519C49.4336 22.8465 50.9712 21.8833 51.5194 19.7443V19.7438ZM43.9001 18.4439L35.5299 19.6923C36.2873 17.3705 38.3117 15.7691 40.9268 15.7691C42.6168 15.7691 44.0792 16.6926 43.9001 18.4439Z" fill="currentColor"/>
<path d="M77.1119 16.9882C76.3496 12.0498 72.141 10 67.3347 10C61.8651 10 56.9886 12.4493 54.0019 16.9426C52.2066 19.6428 50.9836 23.616 51.4794 26.8271C52.2472 31.7997 56.4488 33.7691 61.2684 33.7691C66.7831 33.7691 71.578 31.4737 74.5715 26.9418C76.3649 24.2268 77.6096 20.2144 77.1119 16.9882ZM66.3205 26.2345C64.7305 27.8878 61.3065 28.6308 60.135 26.2575C59.0115 23.9807 60.5595 19.4747 62.292 17.7224C63.275 16.7284 64.4317 16.2309 65.763 16.2309C67.0943 16.2309 67.9972 16.7279 68.4721 17.7224C69.5635 20.0075 68.0234 24.4645 66.321 26.2345H66.3205Z" fill="currentColor"/>
</svg>
